name rise43.5482peak65.4966fall89.1036.mot
datacolumns 19
datarows 21
range 12.34161700000000 12.37494600000000
endheader
time	ground_force1_vx	ground_force1_vy	ground_force1_vz	ground_force1_px	ground_force1_py	ground_force1_pz	ground_force2_vx	ground_force2_vy	ground_force2_vz	ground_force2_px	ground_force2_py	ground_force2_pz	ground_torque1_x	ground_torque1_y	ground_torque1_z	ground_torque2_x	ground_torque2_y	ground_torque2_z	
12.34161700000000	42.83043500000000	769.40427699999998	57.37022200000000	0.26239500000000	0.00000000000000	0.11735000000000	0.00000000000000	0.00000000000000	0.00000000000000	0.00000000000000	0.00000000000000	0.00000000000000	0.00000000000000	18.93937300000000	0.00000000000000	0.00000000000000	0.00000000000000	0.00000000000000	
12.34328500000000	42.18560600000000	773.22416099999998	57.53336000000000	0.26149300000000	0.00000000000000	0.11727200000000	0.00000000000000	0.00000000000000	0.00000000000000	0.00000000000000	0.00000000000000	0.00000000000000	0.00000000000000	19.03277900000000	0.00000000000000	0.00000000000000	0.00000000000000	0.00000000000000	
12.34494500000000	41.54502800000000	776.88564499999995	57.69630300000000	0.26059400000000	0.00000000000000	0.11719500000000	0.00000000000000	0.00000000000000	0.00000000000000	0.00000000000000	0.00000000000000	0.00000000000000	0.00000000000000	19.12553500000000	0.00000000000000	0.00000000000000	0.00000000000000	0.00000000000000	
12.34661400000000	40.90924500000000	780.38660600000003	57.85832200000000	0.25969800000000	0.00000000000000	0.11712000000000	0.00000000000000	0.00000000000000	0.00000000000000	0.00000000000000	0.00000000000000	0.00000000000000	0.00000000000000	19.21716300000000	0.00000000000000	0.00000000000000	0.00000000000000	0.00000000000000	
12.34828200000000	40.27876000000000	783.72510999999997	58.01863300000000	0.25880400000000	0.00000000000000	0.11704600000000	0.00000000000000	0.00000000000000	0.00000000000000	0.00000000000000	0.00000000000000	0.00000000000000	0.00000000000000	19.30716400000000	0.00000000000000	0.00000000000000	0.00000000000000	0.00000000000000	
12.34994500000000	39.65403000000000	786.89941699999997	58.17641000000000	0.25791000000000	0.00000000000000	0.11697400000000	0.00000000000000	0.00000000000000	0.00000000000000	0.00000000000000	0.00000000000000	0.00000000000000	0.00000000000000	19.39502600000000	0.00000000000000	0.00000000000000	0.00000000000000	0.00000000000000	
12.35161200000000	39.03547800000000	789.90799100000004	58.33078400000000	0.25701800000000	0.00000000000000	0.11690300000000	0.00000000000000	0.00000000000000	0.00000000000000	0.00000000000000	0.00000000000000	0.00000000000000	0.00000000000000	19.48022700000000	0.00000000000000	0.00000000000000	0.00000000000000	0.00000000000000	
12.35328400000000	38.42348500000000	792.74950500000000	58.48085900000000	0.25612500000000	0.00000000000000	0.11683400000000	0.00000000000000	0.00000000000000	0.00000000000000	0.00000000000000	0.00000000000000	0.00000000000000	0.00000000000000	19.56223400000000	0.00000000000000	0.00000000000000	0.00000000000000	0.00000000000000	
12.35494600000000	37.81840100000000	795.42284400000005	58.62571400000000	0.25523100000000	0.00000000000000	0.11676600000000	0.00000000000000	0.00000000000000	0.00000000000000	0.00000000000000	0.00000000000000	0.00000000000000	0.00000000000000	19.64051500000000	0.00000000000000	0.00000000000000	0.00000000000000	0.00000000000000	
12.35661400000000	37.22054100000000	797.92711199999997	58.76441600000000	0.25433600000000	0.00000000000000	0.11670000000000	0.00000000000000	0.00000000000000	0.00000000000000	0.00000000000000	0.00000000000000	0.00000000000000	0.00000000000000	19.71453800000000	0.00000000000000	0.00000000000000	0.00000000000000	0.00000000000000	
12.35828200000000	36.63019100000000	800.26163599999995	58.89602400000000	0.25343900000000	0.00000000000000	0.11663500000000	0.00000000000000	0.00000000000000	0.00000000000000	0.00000000000000	0.00000000000000	0.00000000000000	0.00000000000000	19.78377300000000	0.00000000000000	0.00000000000000	0.00000000000000	0.00000000000000	
12.35995300000000	36.04760800000000	802.42597100000000	59.01959700000000	0.25254000000000	0.00000000000000	0.11657100000000	0.00000000000000	0.00000000000000	0.00000000000000	0.00000000000000	0.00000000000000	0.00000000000000	0.00000000000000	19.84770300000000	0.00000000000000	0.00000000000000	0.00000000000000	0.00000000000000	
12.36161800000000	35.47302100000000	804.41990199999998	59.13420500000000	0.25163800000000	0.00000000000000	0.11650800000000	0.00000000000000	0.00000000000000	0.00000000000000	0.00000000000000	0.00000000000000	0.00000000000000	0.00000000000000	19.90582100000000	0.00000000000000	0.00000000000000	0.00000000000000	0.00000000000000	
12.36327900000000	34.90663800000000	806.24344399999995	59.23893500000000	0.25073300000000	0.00000000000000	0.11644700000000	0.00000000000000	0.00000000000000	0.00000000000000	0.00000000000000	0.00000000000000	0.00000000000000	0.00000000000000	19.95763500000000	0.00000000000000	0.00000000000000	0.00000000000000	0.00000000000000	
12.36495100000000	34.34864200000000	807.89684899999997	59.33289400000000	0.24982400000000	0.00000000000000	0.11638700000000	0.00000000000000	0.00000000000000	0.00000000000000	0.00000000000000	0.00000000000000	0.00000000000000	0.00000000000000	20.00267400000000	0.00000000000000	0.00000000000000	0.00000000000000	0.00000000000000	
12.36661300000000	33.79919800000000	809.38060599999994	59.41522300000000	0.24891100000000	0.00000000000000	0.11632800000000	0.00000000000000	0.00000000000000	0.00000000000000	0.00000000000000	0.00000000000000	0.00000000000000	0.00000000000000	20.04049100000000	0.00000000000000	0.00000000000000	0.00000000000000	0.00000000000000	
12.36828200000000	33.25844900000000	810.69543799999997	59.48509900000000	0.24799400000000	0.00000000000000	0.11627000000000	0.00000000000000	0.00000000000000	0.00000000000000	0.00000000000000	0.00000000000000	0.00000000000000	0.00000000000000	20.07066300000000	0.00000000000000	0.00000000000000	0.00000000000000	0.00000000000000	
12.36995300000000	32.72652500000000	811.84230600000001	59.54174200000000	0.24707300000000	0.00000000000000	0.11621300000000	0.00000000000000	0.00000000000000	0.00000000000000	0.00000000000000	0.00000000000000	0.00000000000000	0.00000000000000	20.09279600000000	0.00000000000000	0.00000000000000	0.00000000000000	0.00000000000000	
12.37161900000000	32.20353900000000	812.82240899999999	59.58442300000000	0.24614700000000	0.00000000000000	0.11615800000000	0.00000000000000	0.00000000000000	0.00000000000000	0.00000000000000	0.00000000000000	0.00000000000000	0.00000000000000	20.10652800000000	0.00000000000000	0.00000000000000	0.00000000000000	0.00000000000000	
12.37328200000000	31.68958800000000	813.63718100000006	59.61246400000000	0.24521700000000	0.00000000000000	0.11610300000000	0.00000000000000	0.00000000000000	0.00000000000000	0.00000000000000	0.00000000000000	0.00000000000000	0.00000000000000	20.11153200000000	0.00000000000000	0.00000000000000	0.00000000000000	0.00000000000000	
12.37494600000000	31.18476000000000	814.28828599999997	59.62525000000000	0.24428200000000	0.00000000000000	0.11604800000000	0.00000000000000	0.00000000000000	0.00000000000000	0.00000000000000	0.00000000000000	0.00000000000000	0.00000000000000	20.10751600000000	0.00000000000000	0.00000000000000	0.00000000000000	0.00000000000000	
